<svg xmlns="http://www.w3.org/2000/svg" xmlns:xlink="http://www.w3.org/1999/xlink" width="500" zoomAndPan="magnify" viewBox="0 0 375 225" height="300" preserveAspectRatio="xMidYMid meet" version="1.0"><defs><clipPath id="ea86fcc5eb"><path d="M 106 55 L 170 55 L 170 94 L 106 94 Z M 106 55 " clip-rule="nonzero"/></clipPath><clipPath id="ff83adbf5a"><path d="M 169.4375 58.570312 L 169.4375 65.800781 C 164.242188 63.515625 158.507812 62.238281 152.46875 62.238281 C 132.84375 62.238281 116.296875 75.722656 111.640625 93.902344 L 106.359375 88.199219 C 113.054688 69.183594 131.179688 55.511719 152.46875 55.511719 C 158.4375 55.542969 164.15625 56.621094 169.4375 58.570312 Z M 169.4375 58.570312 " clip-rule="nonzero"/></clipPath><linearGradient x1="551.725241" gradientTransform="matrix(0.168158, 0, 0, 0.168158, 19.338564, 0.01897)" y1="592.306911" x2="852.221972" gradientUnits="userSpaceOnUse" y2="289.879774" id="7b2d690529"><stop stop-opacity="1" stop-color="rgb(56.767273%, 35.127258%, 99.775696%)" offset="0"/><stop stop-opacity="1" stop-color="rgb(56.867981%, 35.284424%, 99.763489%)" offset="0.03125"/><stop stop-opacity="1" stop-color="rgb(57.069397%, 35.600281%, 99.740601%)" offset="0.0625"/><stop stop-opacity="1" stop-color="rgb(57.272339%, 35.916138%, 99.716187%)" offset="0.09375"/><stop stop-opacity="1" stop-color="rgb(57.473755%, 36.233521%, 99.691772%)" offset="0.125"/><stop stop-opacity="1" stop-color="rgb(57.675171%, 36.549377%, 99.667358%)" offset="0.15625"/><stop stop-opacity="1" stop-color="rgb(57.876587%, 36.865234%, 99.642944%)" offset="0.1875"/><stop stop-opacity="1" stop-color="rgb(58.078003%, 37.181091%, 99.620056%)" offset="0.21875"/><stop stop-opacity="1" stop-color="rgb(58.279419%, 37.496948%, 99.595642%)" offset="0.25"/><stop stop-opacity="1" stop-color="rgb(58.482361%, 37.812805%, 99.571228%)" offset="0.28125"/><stop stop-opacity="1" stop-color="rgb(58.683777%, 38.128662%, 99.546814%)" offset="0.3125"/><stop stop-opacity="1" stop-color="rgb(58.885193%, 38.446045%, 99.5224%)" offset="0.34375"/><stop stop-opacity="1" stop-color="rgb(59.086609%, 38.761902%, 99.499512%)" offset="0.375"/><stop stop-opacity="1" stop-color="rgb(59.288025%, 39.077759%, 99.475098%)" offset="0.379863"/><stop stop-opacity="1" stop-color="rgb(59.390259%, 39.23645%, 99.462891%)" offset="0.40625"/><stop stop-opacity="1" stop-color="rgb(59.490967%, 39.393616%, 99.450684%)" offset="0.4375"/><stop stop-opacity="1" stop-color="rgb(59.692383%, 39.709473%, 99.42627%)" offset="0.46875"/><stop stop-opacity="1" stop-color="rgb(59.893799%, 40.02533%, 99.403381%)" offset="0.5"/><stop stop-opacity="1" stop-color="rgb(60.095215%, 40.341187%, 99.378967%)" offset="0.53125"/><stop stop-opacity="1" stop-color="rgb(60.296631%, 40.658569%, 99.354553%)" offset="0.5625"/><stop stop-opacity="1" stop-color="rgb(60.498047%, 40.974426%, 99.330139%)" offset="0.59375"/><stop stop-opacity="1" stop-color="rgb(60.700989%, 41.290283%, 99.305725%)" offset="0.620137"/><stop stop-opacity="1" stop-color="rgb(60.801697%, 41.448975%, 99.295044%)" offset="0.625"/><stop stop-opacity="1" stop-color="rgb(60.902405%, 41.60614%, 99.282837%)" offset="0.65625"/><stop stop-opacity="1" stop-color="rgb(61.103821%, 41.921997%, 99.258423%)" offset="0.6875"/><stop stop-opacity="1" stop-color="rgb(61.305237%, 42.237854%, 99.234009%)" offset="0.71875"/><stop stop-opacity="1" stop-color="rgb(61.502075%, 42.547607%, 99.209595%)" offset="0.75"/><stop stop-opacity="1" stop-color="rgb(61.599731%, 42.698669%, 99.198914%)" offset="1"/></linearGradient><clipPath id="3cc54af11a"><path d="M 104 112 L 198 112 L 198 154 L 104 154 Z M 104 112 " clip-rule="nonzero"/></clipPath><clipPath id="494ab148d1"><path d="M 197.316406 123.800781 C 189.800781 141.121094 172.53125 153.261719 152.46875 153.261719 C 128.320312 153.261719 108.191406 135.636719 104.292969 112.585938 L 111.167969 112.871094 C 115.105469 132.058594 132.121094 146.535156 152.46875 146.535156 C 170.796875 146.535156 186.421875 134.78125 192.207031 118.417969 Z M 197.316406 123.800781 " clip-rule="nonzero"/></clipPath><linearGradient x1="1022.142759" gradientTransform="matrix(0.168158, 0, 0, 0.168158, 19.338564, 0.01897)" y1="604.020376" x2="496.46228" gradientUnits="userSpaceOnUse" y2="895.544047" id="d15b009322"><stop stop-opacity="1" stop-color="rgb(54.899597%, 32.199097%, 100%)" offset="0"/><stop stop-opacity="1" stop-color="rgb(54.919434%, 32.23114%, 99.996948%)" offset="0.03125"/><stop stop-opacity="1" stop-color="rgb(55.014038%, 32.37915%, 99.984741%)" offset="0.046875"/><stop stop-opacity="1" stop-color="rgb(55.160522%, 32.609558%, 99.967957%)" offset="0.0625"/><stop stop-opacity="1" stop-color="rgb(55.308533%, 32.839966%, 99.949646%)" offset="0.078125"/><stop stop-opacity="1" stop-color="rgb(55.455017%, 33.071899%, 99.932861%)" offset="0.09375"/><stop stop-opacity="1" stop-color="rgb(55.603027%, 33.302307%, 99.914551%)" offset="0.109375"/><stop stop-opacity="1" stop-color="rgb(55.751038%, 33.534241%, 99.897766%)" offset="0.125"/><stop stop-opacity="1" stop-color="rgb(55.897522%, 33.764648%, 99.879456%)" offset="0.140625"/><stop stop-opacity="1" stop-color="rgb(56.045532%, 33.995056%, 99.862671%)" offset="0.15625"/><stop stop-opacity="1" stop-color="rgb(56.192017%, 34.22699%, 99.84436%)" offset="0.171875"/><stop stop-opacity="1" stop-color="rgb(56.340027%, 34.457397%, 99.82605%)" offset="0.1875"/><stop stop-opacity="1" stop-color="rgb(56.488037%, 34.687805%, 99.809265%)" offset="0.195169"/><stop stop-opacity="1" stop-color="rgb(56.561279%, 34.803772%, 99.80011%)" offset="0.203125"/><stop stop-opacity="1" stop-color="rgb(56.634521%, 34.919739%, 99.790955%)" offset="0.21875"/><stop stop-opacity="1" stop-color="rgb(56.782532%, 35.150146%, 99.77417%)" offset="0.234375"/><stop stop-opacity="1" stop-color="rgb(56.929016%, 35.380554%, 99.755859%)" offset="0.25"/><stop stop-opacity="1" stop-color="rgb(57.077026%, 35.612488%, 99.739075%)" offset="0.265625"/><stop stop-opacity="1" stop-color="rgb(57.223511%, 35.842896%, 99.720764%)" offset="0.28125"/><stop stop-opacity="1" stop-color="rgb(57.371521%, 36.074829%, 99.703979%)" offset="0.296875"/><stop stop-opacity="1" stop-color="rgb(57.519531%, 36.305237%, 99.685669%)" offset="0.3125"/><stop stop-opacity="1" stop-color="rgb(57.666016%, 36.535645%, 99.668884%)" offset="0.328125"/><stop stop-opacity="1" stop-color="rgb(57.814026%, 36.767578%, 99.650574%)" offset="0.34375"/><stop stop-opacity="1" stop-color="rgb(57.96051%, 36.997986%, 99.633789%)" offset="0.359375"/><stop stop-opacity="1" stop-color="rgb(58.108521%, 37.228394%, 99.615479%)" offset="0.375"/><stop stop-opacity="1" stop-color="rgb(58.256531%, 37.460327%, 99.598694%)" offset="0.390625"/><stop stop-opacity="1" stop-color="rgb(58.403015%, 37.690735%, 99.580383%)" offset="0.40625"/><stop stop-opacity="1" stop-color="rgb(58.551025%, 37.921143%, 99.563599%)" offset="0.421875"/><stop stop-opacity="1" stop-color="rgb(58.69751%, 38.153076%, 99.545288%)" offset="0.4375"/><stop stop-opacity="1" stop-color="rgb(58.84552%, 38.383484%, 99.526978%)" offset="0.453125"/><stop stop-opacity="1" stop-color="rgb(58.99353%, 38.615417%, 99.510193%)" offset="0.46875"/><stop stop-opacity="1" stop-color="rgb(59.140015%, 38.845825%, 99.491882%)" offset="0.484375"/><stop stop-opacity="1" stop-color="rgb(59.288025%, 39.076233%, 99.475098%)" offset="0.5"/><stop stop-opacity="1" stop-color="rgb(59.434509%, 39.308167%, 99.456787%)" offset="0.515625"/><stop stop-opacity="1" stop-color="rgb(59.58252%, 39.538574%, 99.440002%)" offset="0.53125"/><stop stop-opacity="1" stop-color="rgb(59.729004%, 39.768982%, 99.421692%)" offset="0.546875"/><stop stop-opacity="1" stop-color="rgb(59.877014%, 40.000916%, 99.404907%)" offset="0.5625"/><stop stop-opacity="1" stop-color="rgb(60.025024%, 40.231323%, 99.386597%)" offset="0.578125"/><stop stop-opacity="1" stop-color="rgb(60.171509%, 40.461731%, 99.369812%)" offset="0.59375"/><stop stop-opacity="1" stop-color="rgb(60.319519%, 40.693665%, 99.351501%)" offset="0.609375"/><stop stop-opacity="1" stop-color="rgb(60.466003%, 40.924072%, 99.334717%)" offset="0.625"/><stop stop-opacity="1" stop-color="rgb(60.614014%, 41.156006%, 99.316406%)" offset="0.640625"/><stop stop-opacity="1" stop-color="rgb(60.762024%, 41.386414%, 99.299622%)" offset="0.65625"/><stop stop-opacity="1" stop-color="rgb(60.908508%, 41.616821%, 99.281311%)" offset="0.671875"/><stop stop-opacity="1" stop-color="rgb(61.056519%, 41.848755%, 99.263%)" offset="0.6875"/><stop stop-opacity="1" stop-color="rgb(61.203003%, 42.079163%, 99.246216%)" offset="0.703125"/><stop stop-opacity="1" stop-color="rgb(61.351013%, 42.30957%, 99.227905%)" offset="0.71875"/><stop stop-opacity="1" stop-color="rgb(61.51123%, 42.56134%, 99.209595%)" offset="0.75"/><stop stop-opacity="1" stop-color="rgb(61.599731%, 42.698669%, 99.198914%)" offset="0.804831"/><stop stop-opacity="1" stop-color="rgb(61.599731%, 42.698669%, 99.198914%)" offset="1"/></linearGradient></defs><path fill="#5e17eb" d="M 147.390625 204.953125 C 147.390625 210.03125 143.269531 214.152344 138.191406 214.152344 C 133.113281 214.152344 128.996094 210.03125 128.996094 204.953125 L 128.996094 183.160156 L 124.203125 183.160156 L 124.203125 204.953125 C 124.203125 212.6875 130.472656 218.945312 138.210938 218.945312 C 145.945312 218.945312 152.199219 212.671875 152.199219 204.953125 L 152.199219 183.160156 L 147.40625 183.160156 L 147.40625 204.953125 Z M 147.390625 204.953125 " fill-opacity="1" fill-rule="nonzero"/><path fill="#5e17eb" d="M 78.144531 205.273438 L 71.164062 184.742188 L 64.167969 205.273438 L 56.046875 183.160156 L 50.835938 183.160156 L 64.035156 218.945312 L 71.164062 197.589844 L 78.277344 218.945312 L 91.476562 183.160156 L 86.265625 183.160156 Z M 78.144531 205.273438 " fill-opacity="1" fill-rule="nonzero"/><path fill="#5e17eb" d="M 209.527344 194.628906 C 209.527344 188.304688 204.378906 183.144531 198.039062 183.144531 L 186.285156 183.144531 L 186.285156 187.816406 L 197.753906 187.816406 C 201.519531 187.816406 204.566406 190.863281 204.566406 194.628906 C 204.566406 196.511719 203.808594 198.210938 202.5625 199.4375 C 201.335938 200.683594 199.621094 201.4375 197.753906 201.4375 L 186.285156 201.4375 L 186.285156 218.558594 L 190.875 218.558594 L 190.875 206.113281 L 195.972656 206.113281 L 204.261719 218.558594 L 210.132812 218.558594 L 201.707031 205.492188 C 206.261719 203.960938 209.527344 199.65625 209.527344 194.628906 Z M 209.527344 194.628906 " fill-opacity="1" fill-rule="nonzero"/><path fill="#5e17eb" d="M 247.511719 183.160156 L 242.753906 183.160156 L 242.753906 218.589844 L 262.882812 218.589844 L 262.882812 213.816406 L 247.511719 213.816406 Z M 247.511719 183.160156 " fill-opacity="1" fill-rule="nonzero"/><path fill="#5e17eb" d="M 305.054688 183.160156 L 295.386719 183.160156 L 295.386719 218.589844 L 305.054688 218.589844 C 314.304688 218.589844 321.789062 211.089844 321.789062 201.859375 L 321.789062 199.910156 C 321.804688 190.660156 314.304688 183.160156 305.054688 183.160156 Z M 317.214844 201.539062 C 317.214844 208.316406 311.714844 213.816406 304.9375 213.816406 L 300.164062 213.816406 L 300.164062 187.9375 L 304.9375 187.9375 C 311.714844 187.9375 317.214844 193.433594 317.214844 200.210938 Z M 317.214844 201.539062 " fill-opacity="1" fill-rule="nonzero"/><path fill="#9d6dfd" d="M 23.425781 168.078125 L 351.265625 168.078125 L 351.265625 172.128906 L 23.425781 172.128906 Z M 23.425781 168.078125 " fill-opacity="1" fill-rule="nonzero"/><path fill="#9d6dfd" d="M 330.851562 60.4375 L 343.414062 60.4375 L 343.414062 154.640625 L 330.851562 154.640625 Z M 330.851562 60.4375 " fill-opacity="1" fill-rule="nonzero"/><path fill="#9d6dfd" d="M 44.160156 142.078125 L 44.160156 60.4375 L 31.597656 60.4375 L 31.597656 154.640625 L 85.222656 154.640625 L 85.222656 142.078125 Z M 44.160156 142.078125 " fill-opacity="1" fill-rule="nonzero"/><path fill="#5e17eb" d="M 241.558594 60.253906 L 295.21875 60.253906 L 295.21875 72.816406 L 241.558594 72.816406 Z M 241.558594 60.253906 " fill-opacity="1" fill-rule="nonzero"/><path fill="#9d6dfd" d="M 284.976562 113.84375 L 284.976562 101.285156 L 241.558594 101.285156 L 241.558594 154.640625 L 254.121094 154.640625 L 254.121094 113.84375 Z M 284.976562 113.84375 " fill-opacity="1" fill-rule="nonzero"/><g clip-path="url(#ea86fcc5eb)"><g clip-path="url(#ff83adbf5a)"><path fill="url(#7b2d690529)" d="M 106.359375 55.511719 L 106.359375 93.902344 L 169.4375 93.902344 L 169.4375 55.511719 Z M 106.359375 55.511719 " fill-rule="nonzero"/></g></g><g clip-path="url(#3cc54af11a)"><g clip-path="url(#494ab148d1)"><path fill="url(#d15b009322)" d="M 104.292969 112.585938 L 104.292969 153.261719 L 197.316406 153.261719 L 197.316406 112.585938 Z M 104.292969 112.585938 " fill-rule="nonzero"/></g></g><path fill="#9d6dfd" d="M 187.363281 67.316406 C 185.191406 65.265625 182.839844 63.414062 180.332031 61.765625 L 179.59375 75.035156 L 179.390625 78.53125 L 176.347656 76.363281 L 176.347656 78.984375 C 170.109375 73.117188 161.703125 69.519531 152.46875 69.519531 C 133.230469 69.519531 117.578125 85.175781 117.578125 104.410156 C 117.578125 123.648438 133.214844 139.304688 152.46875 139.304688 C 169.371094 139.304688 183.511719 127.214844 186.691406 111.222656 C 187.125 109.019531 187.363281 106.730469 187.363281 104.410156 L 187.363281 84.886719 C 190.609375 90.65625 192.457031 97.316406 192.457031 104.410156 C 192.457031 126.457031 174.515625 144.398438 152.46875 144.398438 C 130.425781 144.382812 112.5 126.457031 112.5 104.410156 C 112.5 82.347656 130.425781 64.421875 152.46875 64.421875 C 158.523438 64.421875 164.273438 65.785156 169.4375 68.207031 L 169.4375 56.367188 C 164.121094 54.484375 158.421875 53.460938 152.46875 53.460938 C 124.371094 53.460938 101.515625 76.3125 101.515625 104.410156 C 101.515625 132.492188 124.371094 155.363281 152.46875 155.363281 C 180.550781 155.363281 203.421875 132.511719 203.421875 104.410156 C 203.421875 89.796875 197.234375 76.613281 187.363281 67.316406 Z M 152.46875 128.238281 C 139.300781 128.238281 128.625 117.5625 128.625 104.394531 C 128.625 91.226562 139.300781 80.550781 152.46875 80.550781 C 165.636719 80.550781 176.3125 91.226562 176.3125 104.394531 C 176.3125 117.578125 165.636719 128.238281 152.46875 128.238281 Z M 152.46875 128.238281 " fill-opacity="1" fill-rule="nonzero"/><path fill="#ffffff" d="M 179.59375 75.050781 C 178.566406 74.09375 177.472656 73.183594 176.347656 72.34375 C 174.195312 70.746094 171.875 69.351562 169.4375 68.191406 L 169.4375 71.4375 L 176.347656 76.363281 L 176.347656 78.984375 C 170.109375 73.117188 161.703125 69.519531 152.46875 69.519531 C 133.230469 69.519531 117.578125 85.175781 117.578125 104.410156 C 117.578125 123.648438 133.214844 139.304688 152.46875 139.304688 C 169.371094 139.304688 183.511719 127.214844 186.691406 111.222656 C 187.125 109.019531 187.363281 106.730469 187.363281 104.410156 L 187.363281 84.886719 C 185.292969 81.207031 182.671875 77.894531 179.59375 75.050781 Z M 152.46875 128.238281 C 139.300781 128.238281 128.625 117.5625 128.625 104.394531 C 128.625 91.226562 139.300781 80.550781 152.46875 80.550781 C 165.636719 80.550781 176.3125 91.226562 176.3125 104.394531 C 176.3125 117.578125 165.636719 128.238281 152.46875 128.238281 Z M 152.46875 128.238281 " fill-opacity="1" fill-rule="nonzero"/><path fill="#5e17eb" d="M 187.363281 14.3125 L 176.347656 3.347656 L 176.347656 78.984375 C 170.109375 73.117188 161.703125 69.519531 152.46875 69.519531 C 133.230469 69.519531 117.578125 85.175781 117.578125 104.410156 C 117.578125 123.648438 133.214844 139.304688 152.46875 139.304688 C 169.371094 139.304688 183.511719 127.214844 186.691406 111.222656 C 187.125 109.019531 187.363281 106.730469 187.363281 104.410156 L 187.363281 29.765625 L 203.671875 46.078125 L 210.46875 37.332031 Z M 152.46875 128.238281 C 139.300781 128.238281 128.625 117.5625 128.625 104.394531 C 128.625 91.226562 139.300781 80.550781 152.46875 80.550781 C 165.636719 80.550781 176.3125 91.226562 176.3125 104.394531 C 176.3125 117.578125 165.636719 128.238281 152.46875 128.238281 Z M 152.46875 128.238281 " fill-opacity="1" fill-rule="nonzero"/></svg>