<?xml version="1.0" encoding="utf-8"?>
<!-- Generator: Adobe Illustrator 25.2.0, SVG Export Plug-In . SVG Version: 6.00 Build 0)  -->
<svg version="1.1" xmlns="http://www.w3.org/2000/svg" xmlns:xlink="http://www.w3.org/1999/xlink" x="0px" y="0px" width="2000px"
	 height="1337.8px" viewBox="0 0 2000 1337.8" enable-background="new 0 0 2000 1337.8" xml:space="preserve">
<g id="Layer_1">
</g>
<g id="Layer_4">
</g>
<g id="Layer_2">
</g>
<g id="Layer_3">
	<g>
		<g>
			<g>
				<path fill="#FF6903" d="M761.5,1218.7c0,30.2-24.5,54.7-54.7,54.7c-30.2,0-54.7-24.5-54.7-54.7v-129.6h-28.5v129.6
					c0,46,37.3,83.2,83.3,83.2c46,0,83.2-37.3,83.2-83.2v-129.6h-28.5V1218.7z"/>
				<polygon fill="#FF6903" points="349.7,1220.6 308.2,1098.5 266.6,1220.6 218.3,1089.1 187.3,1089.1 265.8,1301.9 308.2,1174.9 
					350.5,1301.9 429,1089.1 398,1089.1 				"/>
				<path fill="#FF6903" d="M1131,1157.3c0-37.6-30.6-68.3-68.3-68.3h-42.6h-27.3v27.8h27.3h40.9c22.4,0,40.5,18.1,40.5,40.5
					c0,11.2-4.5,21.3-11.9,28.6c-7.3,7.4-17.5,11.9-28.6,11.9h-40.9h-27.3v27.8v74h27.3v-74h30.3l49.3,74h34.9l-50.1-77.7
					C1111.6,1212.8,1131,1187.2,1131,1157.3z"/>
				<polygon fill="#FF6903" points="1356.9,1089.1 1328.6,1089.1 1328.6,1299.8 1356.9,1299.8 1356.9,1299.8 1448.3,1299.8 
					1448.3,1271.4 1356.9,1271.4 				"/>
				<path fill="#FF6903" d="M1699.1,1089.1h-57.5v210.7h57.5c55,0,99.5-44.6,99.5-99.5v-11.6
					C1798.7,1133.7,1754.1,1089.1,1699.1,1089.1z M1771.4,1198.4c0,40.3-32.7,73-73,73H1670v-153.9h28.4c40.3,0,73,32.7,73,73
					V1198.4z"/>
			</g>
			<rect x="24.3" y="999.4" fill="#444444" width="1949.6" height="24.1"/>
			<rect x="1852.5" y="359.3" fill="#444444" width="74.7" height="560.2"/>
			<polygon fill="#444444" points="147.6,844.8 147.6,359.3 72.9,359.3 72.9,844.8 72.9,919.5 147.6,919.5 391.8,919.5 391.8,844.8 
							"/>
			<rect x="1321.5" y="358.2" fill="#FF6903" width="319.1" height="74.7"/>
			<polygon fill="#444444" points="1579.7,676.9 1579.7,602.2 1321.5,602.2 1321.5,602.2 1321.5,602.2 1321.5,919.5 1396.2,919.5 
				1396.2,676.9 			"/>
			<linearGradient id="SVGID_1_" gradientUnits="userSpaceOnUse" x1="464.7318" y1="679.8591" x2="776.6883" y2="365.8986">
				<stop  offset="1.704893e-07" style="stop-color:#6C6C6C"/>
				<stop  offset="1" style="stop-color:#444444"/>
			</linearGradient>
			<path fill="url(#SVGID_1_)" d="M892.6,348.2v43c-30.9-13.6-65-21.2-100.9-21.2c-116.7,0-215.1,80.2-242.8,188.3l-31.4-33.9
				c39.8-113.1,147.6-194.4,274.2-194.4C827.2,330.2,861.2,336.6,892.6,348.2z"/>
			<linearGradient id="SVGID_2_" gradientUnits="userSpaceOnUse" x1="1008.0083" y1="611.8593" x2="634.5956" y2="818.9396">
				<stop  offset="1.704893e-07" style="stop-color:#6C6C6C"/>
				<stop  offset="1" style="stop-color:#444444"/>
			</linearGradient>
			<path fill="url(#SVGID_2_)" d="M1058.4,736.1c-44.7,103-147.4,175.2-266.7,175.2c-143.6,0-263.3-104.8-286.5-241.9l40.9,1.7
				c23.4,114.1,124.6,200.2,245.6,200.2c109,0,201.9-69.9,236.3-167.2L1058.4,736.1z"/>
			<line fill="none" x1="892.6" y1="391.3" x2="892.6" y2="348.2"/>
		</g>
		<path fill="#444444" d="M999.2,400.2c-12.9-12.2-26.9-23.2-41.8-33l-4.4,78.9l-1.2,20.8L933.7,454v15.6
			c-37.1-34.9-87.1-56.3-142-56.3c-114.4,0-207.5,93.1-207.5,207.5c0,114.4,93,207.5,207.5,207.5c100.5,0,184.6-71.9,203.5-167
			c2.6-13.1,4-26.7,4-40.5V504.7c19.3,34.3,30.3,73.9,30.3,116.1c0,131.1-106.7,237.8-237.8,237.8C660.6,858.5,554,751.9,554,620.8
			C554,489.6,660.6,383,791.7,383c36,0,70.2,8.1,100.9,22.5v-70.4c-31.6-11.2-65.5-17.3-100.9-17.3c-167.1,0-303,135.9-303,303
			c0,167,135.9,303,303,303c167,0,303-135.9,303-303C1094.7,533.9,1057.9,455.5,999.2,400.2z M791.7,762.5
			c-78.3,0-141.8-63.5-141.8-141.8c0-78.3,63.5-141.8,141.8-141.8c78.3,0,141.8,63.5,141.8,141.8C933.5,699.1,870,762.5,791.7,762.5
			z"/>
		<path fill="#FFFFFF" d="M953,446.2c-6.1-5.7-12.6-11.1-19.3-16.1c-12.8-9.5-26.6-17.8-41.1-24.7v19.3l41.1,29.3v15.6
			c-37.1-34.9-87.1-56.3-142-56.3c-114.4,0-207.5,93.1-207.5,207.5c0,114.4,93,207.5,207.5,207.5c100.5,0,184.6-71.9,203.5-167
			c2.6-13.1,4-26.7,4-40.5V504.7C986.9,482.8,971.3,463.1,953,446.2z M791.7,762.5c-78.3,0-141.8-63.5-141.8-141.8
			c0-78.3,63.5-141.8,141.8-141.8c78.3,0,141.8,63.5,141.8,141.8C933.5,699.1,870,762.5,791.7,762.5z"/>
		<path fill="#FF6903" d="M999.2,85l-65.5-65.2v449.8c-37.1-34.9-87.1-56.3-142-56.3c-114.4,0-207.5,93.1-207.5,207.5
			c0,114.4,93,207.5,207.5,207.5c100.5,0,184.6-71.9,203.5-167c2.6-13.1,4-26.7,4-40.5V176.9l97,97l40.4-52L999.2,85z M791.7,762.5
			c-78.3,0-141.8-63.5-141.8-141.8c0-78.3,63.5-141.8,141.8-141.8c78.3,0,141.8,63.5,141.8,141.8C933.5,699.1,870,762.5,791.7,762.5
			z"/>
	</g>
</g>
</svg>
